HIERARCHY
ROOT Hips
{
	OFFSET 0.000000 0.000000 0.000000
	CHANNELS 6 Xposition Yposition Zposition Zrotation Yrotation Xrotation 
	JOINT LHipJoint
	{
		OFFSET 0.000000 0.000000 0.000000
		CHANNELS 3 Zrotation Yrotation Xrotation
		JOINT LeftUpLeg
		{
			OFFSET 1.363060 -1.794630 0.839290
			CHANNELS 3 Zrotation Yrotation Xrotation
			JOINT LeftLeg
			{
				OFFSET 2.448110 -6.726130 0.000000
				CHANNELS 3 Zrotation Yrotation Xrotation
				JOINT LeftFoot
				{
					OFFSET 2.562200 -7.039590 0.000000
					CHANNELS 3 Zrotation Yrotation Xrotation
					JOINT LeftToeBase
					{
						OFFSET 0.157640 -0.433110 2.322550
						CHANNELS 3 Zrotation Yrotation Xrotation
						End Site
						{
							OFFSET 0.000000 0.000000 0.000000
						}
					}
				}
			}
		}
	}
	JOINT RHipJoint
	{
		OFFSET 0.000000 0.000000 0.000000
		CHANNELS 3 Zrotation Yrotation Xrotation
		JOINT RightUpLeg
		{
			OFFSET -1.305520 -1.794630 0.839290
			CHANNELS 3 Zrotation Yrotation Xrotation
			JOINT RightLeg
			{
				OFFSET -2.542530 -6.985550 0.000000
				CHANNELS 3 Zrotation Yrotation Xrotation
				JOINT RightFoot
				{
					OFFSET -2.568260 -7.056230 0.000000
					CHANNELS 3 Zrotation Yrotation Xrotation
					JOINT RightToeBase
					{
						OFFSET -0.164730 -0.452590 2.363150
						CHANNELS 3 Zrotation Yrotation Xrotation
						End Site
						{
							OFFSET 0.000000 0.000000 0.000000
						}
					}
				}
			}
		}
	}
	JOINT LowerBack
	{
		OFFSET 0.000000 0.000000 0.000000
		CHANNELS 3 Zrotation Yrotation Xrotation
		JOINT Spine
		{
			OFFSET 0.028270 2.035590 -0.193380
			CHANNELS 3 Zrotation Yrotation Xrotation
			JOINT Spine1
			{
				OFFSET 0.056720 2.048850 -0.042750
				CHANNELS 3 Zrotation Yrotation Xrotation
				JOINT Neck
				{
					OFFSET 0.000000 0.000000 0.000000
					CHANNELS 3 Zrotation Yrotation Xrotation
					JOINT Neck1
					{
						OFFSET -0.054170 1.746240 0.172020
						CHANNELS 3 Zrotation Yrotation Xrotation
						JOINT Head
						{
							OFFSET 0.104070 1.761360 -0.123970
							CHANNELS 3 Zrotation Yrotation Xrotation
							End Site
							{
								OFFSET 0.000000 0.000000 0.000000
							}
						}
					}
				}
				JOINT LeftShoulder
				{
					OFFSET 0.000000 0.000000 0.000000
					CHANNELS 3 Zrotation Yrotation Xrotation
					JOINT LeftArm
					{
						OFFSET 3.362410 1.200890 -0.311210
						CHANNELS 3 Zrotation Yrotation Xrotation
						JOINT LeftForeArm
						{
							OFFSET 4.983000 -0.000000 -0.000000
							CHANNELS 3 Zrotation Yrotation Xrotation
							JOINT LeftHand
							{
								OFFSET 3.483560 -0.000000 -0.000000
								CHANNELS 3 Zrotation Yrotation Xrotation
								JOINT LeftFingerBase
								{
									OFFSET 0.000000 0.000000 0.000000
									CHANNELS 3 Zrotation Yrotation Xrotation
									JOINT LeftHandIndex1
									{
										OFFSET 0.715260 -0.000000 -0.000000
										CHANNELS 3 Zrotation Yrotation Xrotation
										End Site
										{
											OFFSET 0.000000 0.000000 0.000000
										}
									}
								}
								JOINT LThumb
								{
									OFFSET 0.000000 0.000000 0.000000
									CHANNELS 3 Zrotation Yrotation Xrotation
									End Site
									{
										OFFSET 0.000000 0.000000 0.000000
									}
								}
							}
						}
					}
				}
				JOINT RightShoulder
				{
					OFFSET 0.000000 0.000000 0.000000
					CHANNELS 3 Zrotation Yrotation Xrotation
					JOINT RightArm
					{
						OFFSET -3.136600 1.374050 -0.404650
						CHANNELS 3 Zrotation Yrotation Xrotation
						JOINT RightForeArm
						{
							OFFSET -5.241900 -0.000000 -0.000000
							CHANNELS 3 Zrotation Yrotation Xrotation
							JOINT RightHand
							{
								OFFSET -3.444170 -0.000000 -0.000000
								CHANNELS 3 Zrotation Yrotation Xrotation
								JOINT RightFingerBase
								{
									OFFSET 0.000000 0.000000 0.000000
									CHANNELS 3 Zrotation Yrotation Xrotation
									JOINT RightHandIndex1
									{
										OFFSET -0.622530 -0.000000 -0.000000
										CHANNELS 3 Zrotation Yrotation Xrotation
										End Site
										{
											OFFSET 0.000000 0.000000 0.000000
										}
									}
								}
								JOINT RThumb
								{
									OFFSET 0.000000 0.000000 0.000000
									CHANNELS 3 Zrotation Yrotation Xrotation
									End Site
									{
										OFFSET 0.000000 0.000000 0.000000
									}
								}
							}
						}
					}
				}
			}
		}
	}
}
MOTION
Frames: 6
Frame Time: 0.008333
-13.100547 15.564852 -2.156984 170.859657 84.867547 -159.584584 -12.185835 0.856552 -5.575075 -3.526209 14.043877 -24.260240 -2.200854 3.213080 49.394138 0.999138 4.343153 -16.533492 -0.886600 0.000000 -70.770200 7.180657 0.910085 -2.251655 21.700995 1.348050 -70.196223 1.978404 -5.237344 54.808712 -2.665252 -6.912884 -18.291938 -178.946100 0.000000 -7.782900 4.943806 -3.128563 11.106718 0.174780 -3.117725 -0.785785 -6.086206 -3.026337 -0.894141 8.647892 -13.331039 -8.540963 -3.337081 -0.212861 -0.694658 0.000000 0.000000 0.000000 8.448948 5.500585 1.353477 -54.242100 1.429978 -1.102031 -178.470724 -69.631327 -179.973870 -3.924041 4.090120 -0.130012 0.042926 0.329523 -0.000000 0.000000 0.000000 0.000000 0.000000 0.000000 0.000000 12.075700 -9.061124 1.218153 74.438537 -19.711788 6.569496 0.111085 85.332834 -0.042413 -10.087255 -2.588184 0.213497 0.149625 -0.215030 -0.000000 0.000000 0.000000 0.000000 0.000000 0.000000 0.000000 
-12.906660 15.537835 -2.129591 168.632750 84.609159 -162.230320 -12.192466 0.971815 -5.605648 -3.070395 14.015097 -23.090349 -2.090448 3.219988 49.454648 0.882818 3.808165 -15.211375 -0.681200 -0.000000 -71.876600 7.306696 1.081960 -2.395712 20.985199 1.307277 -69.611796 1.715657 -5.298406 56.735556 -2.914924 -7.756982 -19.895243 -178.552900 0.000001 -9.609300 5.091459 -3.174688 11.265670 0.215988 -3.146343 -0.775288 -6.063271 -3.056206 -0.965723 8.706241 -13.046893 -8.442727 -3.392917 -0.218122 -0.667546 0.000000 0.000000 0.000000 8.502868 5.352917 1.362837 -54.993217 2.050401 -0.695081 -178.498022 -69.911021 -179.971479 -4.213458 3.761643 -0.127446 0.053703 0.334024 -0.000000 0.000000 0.000000 0.000000 0.000000 0.000000 0.000000 12.342860 -8.809109 1.222617 74.369312 -19.293360 6.311510 0.124270 84.865093 -0.043069 -10.246892 -2.577142 0.215893 0.151398 -0.215077 -0.000000 0.000000 0.000000 0.000000 0.000000 0.000000 0.000000 
-12.714938 15.515153 -2.103308 166.829051 84.344699 -164.435867 -12.210771 1.072377 -5.619506 -2.602689 13.908625 -22.043570 -1.956884 3.240714 49.635982 0.777266 3.305647 -13.736245 -0.494001 0.000000 -72.484501 7.420557 1.218808 -2.547078 20.388499 1.231752 -68.954489 1.490185 -5.350821 58.487462 -3.141254 -8.539272 -21.419830 -178.139900 0.000000 -10.438900 5.245864 -3.219138 11.417942 0.255947 -3.174291 -0.767110 -6.045853 -3.085936 -1.037881 8.789561 -12.724419 -8.307128 -3.455464 -0.224252 -0.630070 0.000000 0.000000 0.000000 8.552371 5.169588 1.368187 -55.836097 2.703060 -0.274821 -178.536150 -70.301814 -179.969171 -4.507289 3.435936 -0.123479 0.064755 0.337896 0.000000 0.000000 0.000000 0.000000 0.000000 0.000000 0.000000 12.662166 -8.540697 1.222257 74.241040 -18.733857 6.055488 0.140243 84.293362 -0.043785 -10.423691 -2.587401 0.220588 0.153418 -0.214715 -0.000000 0.000000 0.000000 0.000000 0.000000 0.000000 0.000000 
-12.525132 15.496963 -2.078134 165.463586 84.075438 -166.166963 -12.237994 1.160103 -5.608372 -2.134977 13.710469 -21.164546 -1.803340 3.275693 49.958732 0.686937 2.847602 -12.148795 -0.332900 -0.000000 -72.482700 7.521180 1.320481 -2.697875 19.920989 1.124502 -68.244011 1.304648 -5.392656 60.018764 -3.341721 -9.242732 -22.831839 -177.724799 0.000000 -10.444900 5.413579 -3.259860 11.543620 0.296473 -3.200706 -0.764262 -6.032940 -3.114843 -1.105471 8.897680 -12.379195 -8.138663 -3.520939 -0.230928 -0.582969 0.000000 0.000000 0.000000 8.595297 4.955278 1.367435 -56.764909 3.388278 0.159353 -178.586194 -70.811820 -179.967044 -4.796627 3.129424 -0.118412 0.075785 0.340668 -0.000000 0.000000 0.000000 0.000000 0.000000 0.000000 0.000000 13.021458 -8.271404 1.216733 74.057055 -18.033639 5.805095 0.159136 83.618629 -0.044525 -10.610055 -2.627101 0.228380 0.155686 -0.213786 -0.000000 0.000000 0.000000 0.000000 0.000000 0.000000 0.000000 
-12.337474 15.483316 -2.053451 164.337610 83.804017 -167.632510 -12.266611 1.237983 -5.578169 -1.694734 13.422377 -20.438067 -1.634572 3.322116 50.422813 0.614473 2.438702 -10.502658 -0.202999 -0.000000 -71.661100 7.615076 1.393927 -2.853787 19.557628 0.959345 -67.475779 1.157256 -5.425899 61.324104 -3.510565 -9.841395 -24.112550 -177.326200 0.000000 -9.786000 5.572871 -3.295481 11.655156 0.333167 -3.222822 -0.761559 -6.024743 -3.139550 -1.161735 9.039265 -12.030418 -7.948088 -3.586343 -0.237740 -0.529578 0.000000 0.000000 0.000000 8.646707 4.737517 1.358629 -57.772558 4.062233 0.625465 -178.648812 -71.467280 -179.965142 -5.080638 2.867854 -0.113846 0.086542 0.341682 -0.000000 0.000000 0.000000 0.000000 0.000000 0.000000 0.000000 13.425213 -8.019366 1.203986 73.821980 -17.197170 5.558126 0.180464 82.861427 -0.045294 -10.806032 -2.705753 0.240269 0.158156 -0.212195 -0.000000 0.000000 0.000000 0.000000 0.000000 0.000000 0.000000 
-12.151380 15.473739 -2.029260 163.489401 83.521415 -168.763490 -12.295278 1.305288 -5.517394 -1.293723 13.031981 -19.929772 -1.455541 3.379151 51.055738 0.563926 2.105830 -8.879264 -0.107700 -0.000000 -70.090600 7.699264 1.440202 -2.998361 19.294498 0.759324 -66.693332 1.045517 -5.448256 62.388215 -3.652593 -10.344379 -25.245762 -176.956800 0.000000 -8.634700 5.736381 -3.326789 11.719000 0.369508 -3.243634 -0.766815 -6.019522 -3.163653 -1.207895 9.205063 -11.690724 -7.737707 -3.647302 -0.244423 -0.469593 0.000000 0.000000 0.000000 8.694818 4.487752 1.341588 -58.840100 4.781998 1.096770 -178.723324 -72.237555 -179.963603 -5.339859 2.657690 -0.109879 0.096688 0.340704 -0.000000 0.000000 0.000000 0.000000 0.000000 0.000000 0.000000 13.843667 -7.793700 1.187543 73.556088 -16.241808 5.313984 0.204321 82.028607 -0.046038 -10.996978 -2.822199 0.256058 0.160776 -0.209986 -0.000000 0.000000 0.000000 0.000000 0.000000 0.000000 0.000000 
